
<svg xmlns="http://www.w3.org/2fff/svg" xml:space="preserve" width="32" height="32"><g fill="#fff"><path d="M27.449 31.676H4.551a.75.75 0 0 1 0-1.5h22.898a.75.75 0 0 1 0 1.5zM30.471 28.654a.75.75 0 0 1-.75-.75V1.824H8.324v26.08a.75.75 0 0 1-1.5 0V1.074a.75.75 0 0 1 .75-.75h22.897a.75.75 0 0 1 .75.75v26.83a.75.75 0 0 1-.75.75z"/><path d="M12.387 7.697h13.27v1.5h-13.27zM12.387 12.787h13.27v1.5h-13.27zM12.387 17.877h13.27v1.5h-13.27zM12.387 22.966h13.27v1.5h-13.27zM1.529 28.654a.75.75 0 0 1-.75-.75V6.365a.75.75 0 0 1 .75-.75h6.045a.75.75 0 0 1 0 1.5H2.279v20.789a.75.75 0 0 1-.75.75zM27.449 31.676a.75.75 0 0 1 0-1.5 2.275 2.275 0 0 0 2.272-2.272.75.75 0 0 1 1.5 0 3.776 3.776 0 0 1-3.772 3.772z"/><path d="M4.551 31.676a3.776 3.776 0 0 1-3.772-3.772.75.75 0 0 1 1.5 0 2.275 2.275 0 0 0 2.272 2.272 2.276 2.276 0 0 0 2.273-2.272.75.75 0 0 1 1.5 0 3.776 3.776 0 0 1-3.773 3.772z"/></g></svg>